<?xml version="1.0" encoding="utf-8"?>
<!-- Generator: Adobe Illustrator 23.0.1, SVG Export Plug-In . SVG Version: 6.00 Build 0)  -->
<svg version="1.1" id="Layer_1" xmlns="http://www.w3.org/2000/svg" xmlns:xlink="http://www.w3.org/1999/xlink" x="0px" y="0px"
	 viewBox="0 0 81 80" style="enable-background:new 0 0 81 80;" xml:space="preserve">
<style type="text/css">
	.st0{fill:#3EBDE7;}
	.st1{fill:#FFFFFF;}
</style>
<g>
	<g transform="translate(8 8)">
		<path class="st0" d="M6.1,64L0,59.1V26.8l30,11.9L10.1,64H6.1z"/>
		<path class="st0" d="M21,64l31.3-32.1L37.7,0.5L38.1,0H64v64H21z"/>
		<path class="st0" d="M34.4,0H64v28L49,44L34,0.4L34.4,0z"/>
		<path class="st0" d="M30.3,64H0V50l6.2-20.7L0,27.2V0h39.5L58,21.4L30.5,63.9L30.3,64z"/>
	</g>
	<g transform="translate(12 12)">
		<rect width="56" height="56"/>
	</g>
</g>
<g>
	<path class="st1" d="M42.4,19.8c-2.6,0-5.1,0-7.7,0v8.7h-5l-3.9-8.7h-3.4L15,36.2h3.3l2.1-4.8l5.4-0.1l-0.9-2
		c-0.2-0.5-0.7-0.8-1.2-0.8h-2.1l2.3-5.3l3.5,8.1l2.1,4.8h3.4l-2.2-4.8h3.8v4.8h3.1v-4.8h4.6C50.4,31.4,50.4,19.8,42.4,19.8z
		 M42.4,28.6h-4.6v-5.8h4.6C46.3,22.8,46.3,28.6,42.4,28.6z"/>
	<path class="st1" d="M58.6,19.9c-0.6,0-2.3,0-2.3,0c-0.4,0-0.7,0.3-0.7,0.7c-0.1,0.6-0.3,2.2-0.3,2.2h3.3c3.9,0,3.9,5.8,0,5.8h-4.6
		l0-8.7h-3.1v16.4h3.1v-4.8h4.6C66.6,31.4,66.6,19.9,58.6,19.9z"/>
</g>
<g>
	<path class="st0" d="M41.1,51.5c0.6-0.2,1.1-0.6,1.5-1.1h0c0.5-0.6,0.8-1.4,0.8-2.2c0-1-0.3-1.9-0.8-2.6c-0.8-1.2-2.2-1.9-3.7-2.2
		c-0.6-0.1-1.3-0.2-1.9-0.2c-1,0-2,0.1-2.9,0.4c-1.9,0.6-3.5,1.9-3.6,4.2c0,0,0,0.1,0,0.2c0.1,0.4,0.3,0.5,0.8,0.6l2.3,0.4v-1
		c0-1.5,1.9-2,3.4-2c1.3,0,2.2,0.3,2.7,0.8c0.5,0.4,0.7,0.9,0.7,1.4c0,0.6-0.3,1-0.7,1.3c-0.7,0.5-1.7,0.7-2.7,0.7h-2.4v2.5h2.6
		c1.7,0,2.6,0.4,3,0.9c0.4,0.4,0.4,0.9,0.4,1.3c0,1.8-2.1,2.4-3.6,2.4c-1.3,0-3.6-0.6-3.6-2.3h-3.1c0,3.7,3.6,5,6.7,5
		c3.2,0,6.9-1.2,6.9-5.2c0-0.4-0.1-0.8-0.3-1.2C43.1,52.7,42.2,51.8,41.1,51.5z"/>
	<path class="st0" d="M45.7,58.4c0,2.2,3.4,2.2,3.4,0S45.7,56.2,45.7,58.4z"/>
	<path class="st0" d="M50.2,50.5v2.4c0,9.8,14.3,9.7,14.3,0v-2.4C64.6,40.7,50.2,40.7,50.2,50.5z M61.5,52.8c0,5.9-8.2,5.9-8.2,0
		v-2.4c0-5.9,8.2-5.8,8.2,0V52.8z"/>
</g>
</svg>
